<svg width="15" height="14" viewBox="0 0 15 14" fill="none" xmlns="http://www.w3.org/2000/svg">
<path d="M0.621338 2.59781C0.32251 2.59781 0.0900879 2.36539 0.0900879 2.06656V0.738434C0.0900879 0.472809 0.32251 0.207184 0.621338 0.207184H14.4338C14.6995 0.207184 14.9651 0.472809 14.9651 0.738434V2.06656C14.9651 2.36539 14.6995 2.59781 14.4338 2.59781H0.621338ZM0.621338 7.91031C0.32251 7.91031 0.0900879 7.67789 0.0900879 7.37906V6.05093C0.0900879 5.78531 0.32251 5.51968 0.621338 5.51968H14.4338C14.6995 5.51968 14.9651 5.78531 14.9651 6.05093V7.37906C14.9651 7.67789 14.6995 7.91031 14.4338 7.91031H0.621338ZM0.621338 13.2228C0.32251 13.2228 0.0900879 12.9904 0.0900879 12.6916V11.3634C0.0900879 11.0978 0.32251 10.8322 0.621338 10.8322H14.4338C14.6995 10.8322 14.9651 11.0978 14.9651 11.3634V12.6916C14.9651 12.9904 14.6995 13.2228 14.4338 13.2228H0.621338Z" fill="#DD3333"/>
</svg>
