<svg width="81" height="54" viewBox="0 0 81 54" fill="none" xmlns="http://www.w3.org/2000/svg">
<g clip-path="url(#clip0_998_728)">
<path d="M80.6957 0.163567V40.4664L67.2615 53.9007H53.8272V40.4664L40.3929 53.9007H26.9586V40.4664L13.5243 53.9007H0.0900269V13.5979L13.5243 0.163567H26.9586V13.5979L40.3929 0.163567H53.8272V13.5979L67.2615 0.163567H80.6957Z" fill="#DC371E"/>
<path d="M8.54272 40.4664V36.7061H11.1139C11.9495 36.7061 12.4316 36.5775 12.6566 36.3526C12.8494 36.1597 12.978 35.7098 12.978 35.0027V13.5336H17.3489V35.3562C17.3489 36.6418 17.1561 37.6703 16.7705 38.4738C16.1277 39.7915 14.8421 40.4664 12.9137 40.4664H8.54272Z" fill="white"/>
<path d="M33.965 40.4664V13.5657H42.0642C43.5104 13.5657 44.7317 14.0478 45.6316 15.012C46.5637 15.9762 47.0136 17.4225 47.0136 19.3508V21.5684C47.0136 22.629 46.8208 23.4647 46.4351 24.1075C45.9852 24.9431 45.2781 25.393 44.3461 25.5216V25.5859C45.4388 25.9073 46.2102 26.5822 46.6922 27.6106C46.9815 28.2856 47.1422 29.2498 47.1422 30.5353V35.0027C47.1422 36.449 46.8851 37.606 46.3387 38.4738C45.5352 39.7915 44.2496 40.4343 42.4177 40.4343H33.965V40.4664ZM38.336 23.9789H40.4893C41.1964 23.9789 41.7428 23.7539 42.1284 23.2718C42.4498 22.854 42.6427 22.2434 42.6427 21.3756V19.6079C42.6427 18.8687 42.5463 18.3224 42.2891 18.001C41.9677 17.551 41.3892 17.2939 40.5536 17.2939H38.336V23.9789ZM38.336 36.7061H40.875C41.7106 36.7061 42.257 36.449 42.5141 35.9026C42.707 35.5491 42.7712 34.7135 42.7712 33.4279V31.1138C42.7712 29.7961 42.6427 28.9284 42.3534 28.5427C41.9999 27.9963 41.2928 27.7392 40.2644 27.7392H38.3039V36.7061H38.336Z" fill="white"/>
<path d="M74.075 40.4664H69.3827L64.7867 24.5895L64.6582 24.6217L64.851 27.6749V40.4664H60.4479V13.5657H65.301L69.8005 28.7355H69.929L69.6719 25.9073V13.5657H74.075V40.4664Z" fill="white"/>
</g>
<defs>
<clipPath id="clip0_998_728">
<rect width="80.67" height="53.9943" fill="white" transform="translate(0.0900269 0.00286865)"/>
</clipPath>
</defs>
</svg>
