<svg width="17" height="18" viewBox="0 0 17 18" fill="none" xmlns="http://www.w3.org/2000/svg">
<path fill-rule="evenodd" clip-rule="evenodd" d="M13.243 11.2472C14.2727 11.8194 15.303 12.3915 16.3327 12.9636C16.7759 13.2096 16.9702 13.7318 16.7958 14.2079C15.9099 16.6276 13.3152 17.9049 10.874 17.014C5.87499 15.1896 2.16937 11.4847 0.344694 6.48666C-0.546335 4.04587 0.73111 1.45168 3.15132 0.565932C3.62752 0.391509 4.14975 0.585817 4.39638 1.02898C4.96805 2.05847 5.54028 3.08853 6.11252 4.11803C6.38074 4.60096 6.31766 5.17423 5.95057 5.58671C5.46982 6.12759 4.98907 6.66847 4.50833 7.20879C5.5346 9.70753 7.6525 11.825 10.1517 12.8511C10.6921 12.3705 11.2331 11.8898 11.7741 11.4091C12.1872 11.0421 12.76 10.9791 13.243 11.2472Z" fill="#CF1409"/>
</svg>
