<svg width="27" height="27" viewBox="0 0 27 27" fill="none" xmlns="http://www.w3.org/2000/svg">
<rect width="27" height="27" rx="13.5" fill="#F8F8F8"/>
<path d="M18.5437 9C19.1531 9 19.6687 9.51562 19.6687 10.125V16.875C19.6687 17.5078 19.1531 18 18.5437 18H8.79375C8.16094 18 7.66875 17.5078 7.66875 16.875V10.125C7.66875 9.51562 8.16094 9 8.79375 9H18.5437ZM18.5437 10.125H8.79375V11.0859C9.30937 11.5312 10.1531 12.1875 11.9344 13.5938C12.3328 13.8984 13.1062 14.6484 13.6687 14.625C14.2078 14.6484 14.9812 13.8984 15.3797 13.5938C17.1609 12.1875 18.0047 11.5312 18.5437 11.0859V10.125ZM8.79375 16.875H18.5437V12.5391C18.0047 12.9609 17.2312 13.5703 16.0828 14.4844C15.5437 14.8828 14.6531 15.7734 13.6687 15.75C12.6609 15.7734 11.7469 14.8828 11.2312 14.4844C10.0828 13.5703 9.30937 12.9609 8.79375 12.5391V16.875Z" fill="#5C727D"/>
</svg>
