<svg xmlns="http://www.w3.org/2000/svg" width="180" height="68" viewBox="0 0 180 68" fill="none">
    <g clip-path="url(#clip0_1093_1264)">
        <mask id="mask0_1093_1264" style="mask-type:luminance" maskUnits="userSpaceOnUse" x="0" y="0" width="180" height="69">
            <path d="M179.992 0H0.00830078V68.41H179.992V0Z" fill="white"/>
        </mask>
        <g mask="url(#mask0_1093_1264)">
            <path d="M102.46 0.203613V51.2668L85.4393 68.2878H68.4182V51.2668L51.3971 68.2878H34.3761V51.2668L17.3551 68.2878H0.333984V17.2247L17.3551 0.203613H34.3761V17.2247L51.3971 0.203613H68.4182V17.2247L85.4393 0.203613H102.46Z" fill="#DC371E"/>
            <path d="M11.0435 51.2668V46.5025H14.3011C15.3598 46.5025 15.9706 46.3396 16.2556 46.0546C16.5 45.8103 16.6628 45.2402 16.6628 44.3443V17.1432H22.2008V44.7922C22.2008 46.4211 21.9565 47.7241 21.4678 48.7421C20.6534 50.4116 19.0246 51.2668 16.5814 51.2668H11.0435Z" fill="white"/>
            <path d="M43.2529 51.2668V17.184H53.5144C55.3468 17.184 56.8942 17.7948 58.0344 19.0164C59.2153 20.238 59.7853 22.0704 59.7853 24.5136V27.3233C59.7853 28.6671 59.541 29.7258 59.0524 30.5402C58.4823 31.5989 57.5865 32.169 56.4056 32.3318V32.4133C57.7901 32.8205 58.7673 33.6756 59.3781 34.9787C59.7446 35.8338 59.9482 37.0554 59.9482 38.6842V44.3444C59.9482 46.1768 59.6225 47.6427 58.9302 48.7421C57.9122 50.4117 56.2834 51.2261 53.9624 51.2261H43.2529V51.2668ZM48.7909 30.3773H51.5191C52.415 30.3773 53.1072 30.0922 53.5959 29.4814C54.0031 28.9521 54.2474 28.1784 54.2474 27.079V24.8394C54.2474 23.9028 54.1252 23.2106 53.7995 22.8034C53.3923 22.2333 52.6593 21.9075 51.6006 21.9075H48.7909V30.3773ZM48.7909 46.5025H52.0078C53.0665 46.5025 53.7588 46.1768 54.0845 45.4845C54.3288 45.0366 54.4103 43.9779 54.4103 42.3491V39.4172C54.4103 37.7476 54.2474 36.6482 53.8809 36.1596C53.433 35.4673 52.5371 35.1416 51.2341 35.1416H48.7502V46.5025H48.7909Z" fill="white"/>
            <path d="M94.072 51.2668H88.1269L82.3039 31.151L82.141 31.1917L82.3853 35.0601V51.2668H76.8066V17.184H82.9554L88.6562 36.4039H88.8191L88.4933 32.8205V17.184H94.072V51.2668Z" fill="white"/>
            <path d="M158.107 50.4931V42.665H161.45V43.7205H159.229V46.0184H161.164V47.0738H159.229V49.3717H161.45V50.4931H158.107Z" fill="black"/>
            <path d="M157.469 43.7205C157.366 43.7205 157.282 43.7352 157.216 43.7645C157.15 43.7865 157.088 43.8305 157.029 43.8964C156.97 43.9624 156.93 44.043 156.908 44.1383C156.886 44.2336 156.868 44.3399 156.853 44.4571L156.754 45.3697C156.747 45.465 156.736 45.5529 156.721 45.6335C156.706 45.7068 156.692 45.7838 156.677 45.8644C156.662 45.9377 156.64 46.0037 156.611 46.0623C156.567 46.1649 156.512 46.2566 156.446 46.3372C156.388 46.4105 156.329 46.4691 156.27 46.5131L157.436 50.4931H156.292L155.303 47.0079H154.676V50.4931H153.555V42.665H154.676V46.0184H155.05C155.182 46.0184 155.288 46 155.369 45.9634C155.449 45.9267 155.515 45.8754 155.567 45.8095C155.618 45.7435 155.655 45.6702 155.677 45.5896C155.699 45.5016 155.717 45.4063 155.732 45.3037L155.842 44.3692C155.849 44.3399 155.856 44.2812 155.864 44.1933C155.878 44.098 155.9 43.9917 155.929 43.8744C155.959 43.7572 155.999 43.6362 156.05 43.5116C156.102 43.387 156.168 43.2697 156.248 43.1598C156.388 42.9839 156.556 42.8593 156.754 42.786C156.959 42.7054 157.198 42.665 157.469 42.665V43.7205Z" fill="black"/>
            <path d="M149.486 50.4931V42.665H152.828V43.7205H150.607V46.0184H152.542V47.0738H150.607V49.3717H152.828V50.4931H149.486Z" fill="black"/>
            <path d="M148.847 43.7205C148.745 43.7205 148.66 43.7352 148.594 43.7645C148.528 43.7865 148.466 43.8305 148.407 43.8964C148.349 43.9624 148.308 44.043 148.286 44.1383C148.264 44.2336 148.246 44.3399 148.231 44.4571L148.132 45.3697C148.125 45.465 148.114 45.5529 148.1 45.6335C148.085 45.7068 148.07 45.7838 148.056 45.8644C148.041 45.9377 148.019 46.0037 147.99 46.0623C147.946 46.1649 147.891 46.2566 147.825 46.3372C147.766 46.4105 147.707 46.4691 147.649 46.5131L148.814 50.4931H147.671L146.681 47.0079H146.055V50.4931H144.933V42.665H146.055V46.0184H146.428C146.56 46.0184 146.667 46 146.747 45.9634C146.828 45.9267 146.894 45.8754 146.945 45.8095C146.996 45.7435 147.033 45.6702 147.055 45.5896C147.077 45.5016 147.095 45.4063 147.11 45.3037L147.22 44.3692C147.227 44.3399 147.235 44.2812 147.242 44.1933C147.257 44.098 147.279 43.9917 147.308 43.8744C147.337 43.7572 147.378 43.6362 147.429 43.5116C147.48 43.387 147.546 43.2697 147.627 43.1598C147.766 42.9839 147.935 42.8593 148.132 42.786C148.338 42.7054 148.576 42.665 148.847 42.665V43.7205Z" fill="black"/>
            <path d="M139.366 42.665V49.5036H140.498V42.665H141.62V49.5036H142.752V42.665H143.874V50.4931H138.245V42.665H139.366Z" fill="black"/>
            <path d="M136.072 50.4931V45.4137H136.05L134.577 50.4931H133.456V42.665H134.577V47.7555H134.599L136.072 42.665H137.194V50.4931H136.072Z" fill="black"/>
            <path d="M129.011 42.665H132.221V43.7205H130.132V45.8754H130.572C130.96 45.8754 131.283 45.9267 131.539 46.0293C131.803 46.132 132.016 46.2786 132.177 46.4691C132.346 46.6744 132.452 46.8979 132.496 47.1398C132.54 47.3743 132.566 47.6345 132.573 47.9204V48.3602C132.573 49.0492 132.404 49.5769 132.067 49.9434C131.737 50.3099 131.206 50.4931 130.473 50.4931H129.011V42.665ZM130.132 46.8649V49.3717H130.55C130.777 49.3717 130.953 49.3387 131.078 49.2727C131.21 49.2067 131.309 49.1151 131.375 48.9979C131.441 48.8806 131.481 48.7413 131.495 48.5801C131.51 48.4188 131.517 48.2429 131.517 48.0523C131.517 47.8544 131.503 47.6822 131.474 47.5356C131.452 47.3817 131.404 47.2571 131.331 47.1618C131.257 47.0665 131.162 46.9932 131.045 46.9419C130.927 46.8906 130.766 46.8649 130.561 46.8649H130.132Z" fill="black"/>
            <path d="M122.29 50.4931V42.665H123.928C124.287 42.665 124.591 42.72 124.84 42.83C125.097 42.9399 125.306 43.0865 125.467 43.2697C125.628 43.453 125.742 43.6655 125.808 43.9074C125.881 44.142 125.918 44.3875 125.918 44.644V44.9299C125.918 45.1425 125.899 45.322 125.863 45.4686C125.833 45.6152 125.786 45.7435 125.72 45.8534C125.595 46.0587 125.405 46.2346 125.148 46.3812C125.412 46.5058 125.606 46.689 125.731 46.9309C125.855 47.1728 125.918 47.5026 125.918 47.9204V48.3602C125.918 49.0492 125.749 49.5769 125.412 49.9434C125.082 50.3099 124.551 50.4931 123.818 50.4931H122.29ZM123.411 46.8649V49.3717H123.895C124.122 49.3717 124.298 49.3387 124.422 49.2727C124.554 49.2067 124.653 49.1151 124.719 48.9979C124.785 48.8806 124.826 48.7413 124.84 48.5801C124.855 48.4188 124.862 48.2429 124.862 48.0523C124.862 47.8544 124.851 47.6822 124.829 47.5356C124.807 47.389 124.763 47.2644 124.697 47.1618C124.624 47.0592 124.525 46.9859 124.4 46.9419C124.276 46.8906 124.111 46.8649 123.906 46.8649H123.411ZM123.411 43.7205V45.8754H123.917C124.291 45.8754 124.54 45.7838 124.664 45.6006C124.796 45.41 124.862 45.1351 124.862 44.776C124.862 44.4242 124.789 44.1603 124.642 43.9844C124.503 43.8085 124.247 43.7205 123.873 43.7205H123.411Z" fill="black"/>
            <path d="M178.74 37.4626V32.3832H178.718L177.245 37.4626H176.124V29.6346H177.245V34.725H177.267L178.74 29.6346H179.862V37.4626H178.74Z" fill="black"/>
            <path d="M173.209 37.4626V30.69H171.912V29.6345H175.628V30.69H174.331V37.4626H173.209Z" fill="black"/>
            <path d="M171.666 35.2308V35.7145C171.666 35.9564 171.618 36.1873 171.523 36.4072C171.435 36.6197 171.31 36.8103 171.149 36.9789C170.988 37.1475 170.797 37.2831 170.577 37.3857C170.365 37.481 170.134 37.5286 169.885 37.5286C169.672 37.5286 169.456 37.4993 169.236 37.4406C169.016 37.382 168.818 37.2794 168.642 37.1328C168.466 36.9862 168.32 36.7993 168.203 36.5721C168.093 36.3375 168.038 36.0407 168.038 35.6815V31.3717C168.038 31.1152 168.082 30.8769 168.17 30.6571C168.257 30.4372 168.382 30.2466 168.543 30.0853C168.705 29.9241 168.895 29.7995 169.115 29.7115C169.342 29.6162 169.591 29.5686 169.863 29.5686C170.39 29.5686 170.819 29.7409 171.149 30.0853C171.31 30.2539 171.435 30.4555 171.523 30.69C171.618 30.9173 171.666 31.1665 171.666 31.4377V31.8774H170.544V31.5036C170.544 31.2837 170.482 31.0932 170.357 30.9319C170.233 30.7707 170.064 30.69 169.852 30.69C169.573 30.69 169.386 30.778 169.291 30.9539C169.203 31.1225 169.159 31.3387 169.159 31.6026V35.6046C169.159 35.8318 169.207 36.0224 169.302 36.1763C169.405 36.3302 169.584 36.4072 169.841 36.4072C169.914 36.4072 169.991 36.3962 170.072 36.3742C170.16 36.3449 170.24 36.3009 170.313 36.2422C170.379 36.1836 170.434 36.103 170.478 36.0004C170.522 35.8977 170.544 35.7695 170.544 35.6156V35.2308H171.666Z" fill="black"/>
            <path d="M163.356 31.4816C163.356 31.1665 163.411 30.8879 163.521 30.6461C163.631 30.4042 163.778 30.2026 163.961 30.0414C164.137 29.8874 164.335 29.7702 164.555 29.6895C164.782 29.6089 165.009 29.5686 165.237 29.5686C165.464 29.5686 165.687 29.6089 165.907 29.6895C166.134 29.7702 166.34 29.8874 166.523 30.0414C166.699 30.2026 166.842 30.4042 166.952 30.6461C167.062 30.8879 167.117 31.1665 167.117 31.4816V35.6156C167.117 35.9454 167.062 36.2276 166.952 36.4621C166.842 36.6967 166.699 36.8909 166.523 37.0448C166.34 37.2061 166.134 37.327 165.907 37.4077C165.687 37.4883 165.464 37.5286 165.237 37.5286C165.009 37.5286 164.782 37.4883 164.555 37.4077C164.335 37.327 164.137 37.2061 163.961 37.0448C163.778 36.8909 163.631 36.6967 163.521 36.4621C163.411 36.2276 163.356 35.9454 163.356 35.6156V31.4816ZM164.478 35.6156C164.478 35.8868 164.551 36.0883 164.698 36.2203C164.852 36.3449 165.031 36.4072 165.237 36.4072C165.442 36.4072 165.618 36.3449 165.764 36.2203C165.918 36.0883 165.995 35.8868 165.995 35.6156V31.4816C165.995 31.2104 165.918 31.0125 165.764 30.8879C165.618 30.756 165.442 30.69 165.237 30.69C165.031 30.69 164.852 30.756 164.698 30.8879C164.551 31.0125 164.478 31.2104 164.478 31.4816V35.6156Z" fill="black"/>
            <path d="M157.313 37.4626V29.6346H158.39L159.831 33.7795H159.853L161.282 29.6346H162.37V37.4626H161.249V32.702H161.227L160.117 36.0663H159.556L158.456 32.702H158.434V37.4626H157.313Z" fill="black"/>
            <path d="M155.141 37.4626V32.3832H155.119L153.646 37.4626H152.524V29.6346H153.646V34.725H153.668L155.141 29.6346H156.263V37.4626H155.141Z" fill="black"/>
            <path d="M148.047 29.6346H149.169V32.9879H149.498C149.63 32.9879 149.733 32.9696 149.806 32.9329C149.887 32.8963 149.949 32.845 149.993 32.779C150.045 32.713 150.081 32.6397 150.103 32.5591C150.125 32.4712 150.143 32.3759 150.158 32.2733L150.268 31.3387C150.275 31.3094 150.283 31.2508 150.29 31.1628C150.305 31.0675 150.327 30.9649 150.356 30.855C150.393 30.7377 150.437 30.6168 150.488 30.4922C150.539 30.3602 150.609 30.2429 150.697 30.1403C150.851 29.9498 151.019 29.8178 151.203 29.7445C151.393 29.6712 151.617 29.6346 151.873 29.6346H151.884V30.69H151.862C151.782 30.69 151.705 30.7047 151.631 30.734C151.565 30.756 151.503 30.8 151.444 30.866C151.386 30.9319 151.346 31.0126 151.324 31.1078C151.309 31.2031 151.294 31.3094 151.28 31.4267L151.181 32.3392C151.173 32.4345 151.162 32.5261 151.148 32.6141C151.133 32.6947 151.118 32.7753 151.104 32.856C151.089 32.9293 151.071 32.9879 151.049 33.0319C150.961 33.2371 150.851 33.3874 150.719 33.4826L151.752 37.4626H150.609L149.751 33.9774H149.169V37.4626H148.047V33.9774H147.464L146.607 37.4626H145.463L146.497 33.4826C146.365 33.3874 146.255 33.2371 146.167 33.0319C146.145 32.9879 146.127 32.9293 146.112 32.856C146.097 32.7753 146.083 32.6947 146.068 32.6141C146.054 32.5261 146.043 32.4345 146.035 32.3392L145.936 31.4267C145.922 31.3094 145.903 31.2031 145.881 31.1078C145.867 31.0126 145.83 30.9319 145.771 30.866C145.713 30.8 145.647 30.756 145.573 30.734C145.507 30.7047 145.434 30.69 145.354 30.69H145.332V29.6346H145.343C145.599 29.6346 145.819 29.6712 146.002 29.7445C146.193 29.8178 146.365 29.9498 146.519 30.1403C146.607 30.2429 146.677 30.3602 146.728 30.4922C146.779 30.6168 146.819 30.7377 146.849 30.855C146.885 30.9649 146.907 31.0675 146.915 31.1628C146.929 31.2508 146.94 31.3094 146.948 31.3387L147.058 32.2733C147.072 32.3759 147.091 32.4712 147.113 32.5591C147.135 32.6397 147.168 32.713 147.212 32.779C147.263 32.845 147.325 32.8963 147.399 32.9329C147.479 32.9696 147.585 32.9879 147.717 32.9879H148.047V29.6346Z" fill="black"/>
            <path d="M143.577 37.4626V32.3832H143.555L142.082 37.4626H140.96V29.6346H142.082V34.725H142.104L143.577 29.6346H144.699V37.4626H143.577Z" fill="black"/>
            <path d="M136.279 37.4626V29.6346H137.917C138.277 29.6346 138.581 29.6896 138.83 29.7995C139.087 29.9094 139.295 30.056 139.457 30.2393C139.618 30.4225 139.732 30.6351 139.798 30.877C139.871 31.1115 139.907 31.357 139.907 31.6136V31.8994C139.907 32.112 139.889 32.2916 139.852 32.4382C139.823 32.5848 139.776 32.713 139.71 32.823C139.585 33.0282 139.394 33.2041 139.138 33.3507C139.402 33.4753 139.596 33.6586 139.721 33.9004C139.845 34.1423 139.907 34.4721 139.907 34.8899V35.3297C139.907 36.0187 139.739 36.5464 139.402 36.9129C139.072 37.2794 138.54 37.4626 137.808 37.4626H136.279ZM137.401 33.8345V36.3412H137.884C138.112 36.3412 138.288 36.3082 138.412 36.2423C138.544 36.1763 138.643 36.0847 138.709 35.9674C138.775 35.8501 138.815 35.7109 138.83 35.5496C138.845 35.3884 138.852 35.2124 138.852 35.0219C138.852 34.824 138.841 34.6517 138.819 34.5051C138.797 34.3585 138.753 34.2339 138.687 34.1313C138.614 34.0287 138.515 33.9554 138.39 33.9114C138.266 33.8601 138.101 33.8345 137.895 33.8345H137.401ZM137.401 30.69V32.845H137.906C138.28 32.845 138.529 32.7533 138.654 32.5701C138.786 32.3795 138.852 32.1047 138.852 31.7455C138.852 31.3937 138.779 31.1298 138.632 30.9539C138.493 30.778 138.236 30.69 137.862 30.69H137.401Z" fill="black"/>
            <path d="M131.609 37.4626V38.672H130.642V36.4731H131.213C131.279 36.3339 131.342 36.1763 131.4 36.0004C131.459 35.8171 131.51 35.6266 131.554 35.4287C131.598 35.2308 131.638 35.0292 131.675 34.824C131.712 34.6114 131.741 34.4062 131.763 34.2083C131.778 34.0544 131.789 33.8821 131.796 33.6915C131.811 33.501 131.822 33.3067 131.829 33.1088C131.836 32.9036 131.84 32.702 131.84 32.5041C131.847 32.2989 131.851 32.1047 131.851 31.9214V29.6346H135.072V36.4731H135.71V38.672H134.743V37.4626H131.609ZM132.906 30.6241V31.9104C132.906 32.0131 132.903 32.1633 132.895 32.3612C132.888 32.5518 132.877 32.7607 132.862 32.9879C132.848 33.2151 132.833 33.446 132.819 33.6805C132.804 33.9078 132.786 34.1093 132.764 34.2852C132.749 34.4318 132.723 34.6004 132.687 34.791C132.657 34.9742 132.621 35.1648 132.577 35.3627C132.533 35.5606 132.485 35.7585 132.434 35.9564C132.382 36.147 132.324 36.3192 132.258 36.4731H133.951V30.6241H132.906Z" fill="black"/>
            <path d="M126.971 37.4626V29.6346H130.313V30.69H128.092V32.9879H130.027V34.0434H128.092V36.3412H130.313V37.4626H126.971Z" fill="black"/>
            <path d="M122.29 37.4626V29.6346H123.411V32.9879H124.796V29.6346H125.918V37.4626H124.796V33.9774H123.411V37.4626H122.29Z" fill="black"/>
            <path d="M155.507 18.4512C155.507 18.136 155.562 17.8575 155.672 17.6156C155.782 17.3737 155.929 17.1722 156.112 17.0109C156.288 16.857 156.486 16.7397 156.706 16.6591C156.933 16.5785 157.16 16.5381 157.387 16.5381C157.615 16.5381 157.838 16.5785 158.058 16.6591C158.285 16.7397 158.49 16.857 158.674 17.0109C158.85 17.1722 158.993 17.3737 159.103 17.6156C159.212 17.8575 159.267 18.136 159.267 18.4512V22.5851C159.267 22.9149 159.212 23.1971 159.103 23.4317C158.993 23.6662 158.85 23.8605 158.674 24.0144C158.49 24.1756 158.285 24.2966 158.058 24.3772C157.838 24.4578 157.615 24.4981 157.387 24.4981C157.16 24.4981 156.933 24.4578 156.706 24.3772C156.486 24.2966 156.288 24.1756 156.112 24.0144C155.929 23.8605 155.782 23.6662 155.672 23.4317C155.562 23.1971 155.507 22.9149 155.507 22.5851V18.4512ZM156.629 22.5851C156.629 22.8563 156.702 23.0579 156.849 23.1898C157.003 23.3144 157.182 23.3767 157.387 23.3767C157.593 23.3767 157.769 23.3144 157.915 23.1898C158.069 23.0579 158.146 22.8563 158.146 22.5851V18.4512C158.146 18.18 158.069 17.9821 157.915 17.8575C157.769 17.7255 157.593 17.6596 157.387 17.6596C157.182 17.6596 157.003 17.7255 156.849 17.8575C156.702 17.9821 156.629 18.18 156.629 18.4512V22.5851Z" fill="black"/>
            <path d="M150.892 24.4322V16.6041H152.53C152.889 16.6041 153.194 16.6591 153.443 16.769C153.699 16.879 153.908 17.0256 154.069 17.2088C154.231 17.3921 154.344 17.6046 154.41 17.8465C154.484 18.081 154.52 18.3266 154.52 18.5831V18.869C154.52 19.0815 154.502 19.2611 154.465 19.4077C154.436 19.5543 154.388 19.6826 154.322 19.7925C154.198 19.9977 154.007 20.1737 153.751 20.3203C154.015 20.4449 154.209 20.6281 154.333 20.87C154.458 21.1119 154.52 21.4417 154.52 21.8595V22.2993C154.52 22.9882 154.352 23.516 154.015 23.8825C153.685 24.2489 153.153 24.4322 152.42 24.4322H150.892ZM152.014 20.804V23.3107H152.497C152.725 23.3107 152.9 23.2778 153.025 23.2118C153.157 23.1458 153.256 23.0542 153.322 22.9369C153.388 22.8197 153.428 22.6804 153.443 22.5191C153.457 22.3579 153.465 22.182 153.465 21.9914C153.465 21.7935 153.454 21.6213 153.432 21.4747C153.41 21.3281 153.366 21.2035 153.3 21.1009C153.227 20.9982 153.128 20.925 153.003 20.881C152.878 20.8297 152.714 20.804 152.508 20.804H152.014ZM152.014 17.6596V19.8145H152.519C152.893 19.8145 153.142 19.7229 153.267 19.5396C153.399 19.3491 153.465 19.0742 153.465 18.7151C153.465 18.3632 153.392 18.0994 153.245 17.9235C153.106 17.7475 152.849 17.6596 152.475 17.6596H152.014Z" fill="black"/>
            <path d="M147.978 24.4322V17.6596H146.681V16.6041H150.397V17.6596H149.099V24.4322H147.978Z" fill="black"/>
            <path d="M146.434 22.2003V22.6841C146.434 22.9259 146.387 23.1568 146.291 23.3767C146.203 23.5893 146.079 23.7798 145.918 23.9484C145.756 24.117 145.566 24.2526 145.346 24.3552C145.133 24.4505 144.902 24.4981 144.653 24.4981C144.441 24.4981 144.224 24.4688 144.005 24.4102C143.785 24.3515 143.587 24.2489 143.411 24.1023C143.235 23.9557 143.088 23.7688 142.971 23.5416C142.861 23.3071 142.806 23.0102 142.806 22.6511V18.3412C142.806 18.0847 142.85 17.8465 142.938 17.6266C143.026 17.4067 143.151 17.2161 143.312 17.0549C143.473 16.8936 143.664 16.769 143.884 16.6811C144.111 16.5858 144.36 16.5381 144.631 16.5381C145.159 16.5381 145.588 16.7104 145.918 17.0549C146.079 17.2235 146.203 17.425 146.291 17.6596C146.387 17.8868 146.434 18.136 146.434 18.4072V18.847H145.313V18.4732C145.313 18.2533 145.251 18.0627 145.126 17.9015C145.001 17.7402 144.833 17.6596 144.62 17.6596C144.342 17.6596 144.155 17.7475 144.06 17.9234C143.972 18.092 143.928 18.3083 143.928 18.5721V22.5741C143.928 22.8013 143.975 22.9919 144.071 23.1458C144.173 23.2997 144.353 23.3767 144.609 23.3767C144.683 23.3767 144.76 23.3657 144.84 23.3437C144.928 23.3144 145.009 23.2704 145.082 23.2118C145.148 23.1531 145.203 23.0725 145.247 22.9699C145.291 22.8673 145.313 22.739 145.313 22.5851V22.2003H146.434Z" fill="black"/>
            <path d="M140.012 24.4322V17.6596H138.714V16.6041H142.43V17.6596H141.133V24.4322H140.012Z" fill="black"/>
            <path d="M134.594 24.4322V16.6041H135.715V19.9574H137.1V16.6041H138.222V24.4322H137.1V20.9469H135.715V24.4322H134.594Z" fill="black"/>
            <path d="M130.525 24.4322V16.6041H133.867V17.6596H131.646V19.9574H133.581V21.0129H131.646V23.3107H133.867V24.4322H130.525Z" fill="black"/>
            <path d="M126.767 24.4322V16.6041H129.889V17.6596H127.888V24.4322H126.767Z" fill="black"/>
            <path d="M124.554 21.6946L124.005 18.858H123.983L123.433 21.6946H124.554ZM121.784 24.4322L123.532 16.6041H124.466L126.214 24.4322H125.093L124.763 22.75H123.235L122.905 24.4322H121.784Z" fill="black"/>
        </g>
    </g>
    <defs>
        <clipPath id="clip0_1093_1264">
            <rect width="179.983" height="68.41" fill="white" transform="translate(0.00830078)"/>
        </clipPath>
    </defs>
</svg>
