<svg width="27" height="27" viewBox="0 0 27 27" fill="none" xmlns="http://www.w3.org/2000/svg">
<rect width="27" height="27" rx="13.5" fill="#F8F8F8"/>
<path d="M19.2234 8.08594C19.4812 8.15625 19.6687 8.36719 19.6687 8.625C19.6687 14.6484 14.7937 19.5 8.79375 19.5C8.5125 19.5 8.30156 19.3359 8.23125 19.0781L7.66875 16.6406C7.62187 16.3828 7.73906 16.1016 7.99687 15.9844L10.6219 14.8594C10.8562 14.7656 11.1141 14.8359 11.2781 15.0234L12.45 16.4531C14.2781 15.5859 15.7547 14.0859 16.5984 12.3047L15.1687 11.1328C14.9812 10.9688 14.9109 10.7109 15.0047 10.4766L16.1297 7.85156C16.2469 7.59375 16.5281 7.45312 16.7859 7.52344L19.2234 8.08594Z" fill="#5C727D"/>
</svg>
