<svg width="60" height="60" viewBox="0 0 60 60" fill="none" xmlns="http://www.w3.org/2000/svg">
    <rect width="60" height="60" rx="30" fill="white"/>
    <path d="M23.3337 22V23C23.668 23 23.9802 22.8329 24.1657 22.5547L23.3337 22ZM25.2087 19.1875L24.3766 18.6328V18.6328L25.2087 19.1875ZM34.792 19.1875L35.624 18.6328L34.792 19.1875ZM36.667 22L35.8349 22.5547C36.0204 22.8329 36.3326 23 36.667 23V22ZM33.0003 32C33.0003 33.6569 31.6572 35 30.0003 35V37C32.7617 37 35.0003 34.7614 35.0003 32H33.0003ZM30.0003 35C28.3435 35 27.0003 33.6569 27.0003 32H25.0003C25.0003 34.7614 27.2389 37 30.0003 37V35ZM27.0003 32C27.0003 30.3431 28.3435 29 30.0003 29V27C27.2389 27 25.0003 29.2386 25.0003 32H27.0003ZM30.0003 29C31.6572 29 33.0003 30.3431 33.0003 32H35.0003C35.0003 29.2386 32.7617 27 30.0003 27V29ZM24.1657 22.5547L26.0407 19.7422L24.3766 18.6328L22.5016 21.4453L24.1657 22.5547ZM27.4275 19H32.5732V17H27.4275V19ZM33.9599 19.7422L35.8349 22.5547L37.499 21.4453L35.624 18.6328L33.9599 19.7422ZM32.5732 19C33.1304 19 33.6508 19.2785 33.9599 19.7422L35.624 18.6328C34.944 17.6127 33.7991 17 32.5732 17V19ZM26.0407 19.7422C26.3498 19.2785 26.8702 19 27.4275 19V17C26.2015 17 25.0567 17.6127 24.3766 18.6328L26.0407 19.7422ZM42.3337 27.3333V36.6667H44.3337V27.3333H42.3337ZM38.0003 41H22.0003V43H38.0003V41ZM17.667 36.6667V27.3333H15.667V36.6667H17.667ZM22.0003 41C19.6071 41 17.667 39.0599 17.667 36.6667H15.667C15.667 40.1645 18.5025 43 22.0003 43V41ZM42.3337 36.6667C42.3337 39.0599 40.3936 41 38.0003 41V43C41.4981 43 44.3337 40.1645 44.3337 36.6667H42.3337ZM38.0003 23C40.3936 23 42.3337 24.9401 42.3337 27.3333H44.3337C44.3337 23.8355 41.4981 21 38.0003 21V23ZM22.0003 21C18.5025 21 15.667 23.8355 15.667 27.3333H17.667C17.667 24.9401 19.6071 23 22.0003 23V21ZM22.0003 23H23.3337V21H22.0003V23ZM38.0003 21H36.667V23H38.0003V21Z" fill="#DC371E"/>
    <circle cx="30.0003" cy="22" r="1.33333" fill="#DC371E"/>
</svg>
